# xmcd
#
# Track frame offsets:
#	150
#	17464
#	32727
#	49385
#	65785
#	86797
#	103544
#	120790
#	136223
#
# Disc length: 2046 seconds
#
# Revision: 1
# Processed by: cddbd v1.5.2PL0 Copyright (c) Steve Scherf et al.
# Submitted via: EasyCDDAExtractor 7.0.3.1
#
DISCID=7107fc09
DTITLE=Cheryl Cormier
DYEAR=1900
DGENRE=Country
TTITLE0=I Wonder
TTITLE1=Diamonds and Pearls
TTITLE2=Leave This Heart Of Mine
TTITLE3=What Goes Around (Comes Around)
TTITLE4=Wonderful
TTITLE5=Don't You Want Me Now
TTITLE6=Who's Cryin' Now
TTITLE7=You're Breakin' My Heart
TTITLE8=I'm Not Letting Go
EXTD=
EXTT0=
EXTT1=
EXTT2=
EXTT3=
EXTT4=
EXTT5=
EXTT6=
EXTT7=
EXTT8=
PLAYORDER=
